<?xml version="1.0" standalone="no"?>
<!DOCTYPE svg PUBLIC "-//W3C//DTD SVG 20010904//EN"
 "http://www.w3.org/TR/2001/REC-SVG-20010904/DTD/svg10.dtd">
<svg version="1.0" xmlns="http://www.w3.org/2000/svg"
 width="700.000000pt" height="700.000000pt" viewBox="0 0 700.000000 700.000000"
 preserveAspectRatio="xMidYMid meet">
<metadata>
Created by potrace 1.11, written by Peter Selinger 2001-2013
</metadata>
<g transform="translate(0.000000,700.000000) scale(0.100000,-0.100000)"
fill="#000000" stroke="none">
<path d="M3149 6996 c-2 -2 -33 -6 -69 -10 -36 -3 -90 -10 -120 -16 -30 -5
-71 -12 -90 -15 -72 -12 -88 -15 -206 -44 -345 -85 -699 -235 -1004 -425 -107
-67 -279 -187 -316 -221 -6 -5 -28 -23 -49 -40 -95 -74 -335 -306 -430 -416
-342 -392 -595 -865 -740 -1378 -29 -104 -82 -364 -91 -442 -3 -29 -7 -65 -10
-79 -18 -111 -25 -515 -11 -696 26 -341 111 -696 244 -1024 184 -454 454 -855
809 -1202 44 -42 90 -86 104 -98 14 -12 39 -34 55 -48 17 -15 50 -43 75 -62
25 -19 47 -37 50 -40 3 -3 39 -30 80 -60 286 -210 610 -379 940 -492 106 -36
342 -101 408 -113 16 -2 64 -12 108 -20 43 -8 106 -18 139 -21 33 -3 63 -8 66
-9 29 -18 532 -26 709 -12 104 9 108 9 290 38 605 97 1236 397 1710 812 76 66
259 249 308 307 26 30 63 72 83 95 82 92 216 281 307 432 270 447 447 993 489
1508 9 109 10 471 1 575 -32 366 -261 775 -582 1039 -181 150 -434 275 -656
325 -75 17 -95 21 -180 32 -25 3 -58 7 -75 10 -95 13 -368 2 -475 -20 -8 -1
-33 -6 -55 -10 -139 -26 -336 -109 -460 -192 -72 -48 -82 -57 -164 -136 -222
-215 -336 -552 -297 -883 29 -247 158 -448 350 -545 45 -22 91 -43 104 -45 13
-2 31 -6 40 -9 93 -28 277 -21 383 14 236 79 393 273 427 525 24 188 -19 360
-125 493 -19 23 -32 42 -29 42 8 0 116 -89 149 -123 103 -106 200 -277 223
-392 2 -11 9 -42 15 -68 11 -46 8 -365 -4 -384 -3 -4 -8 -33 -12 -63 -9 -84
-52 -244 -92 -350 -222 -587 -717 -1058 -1321 -1259 -148 -49 -347 -93 -482
-106 -41 -4 -88 -9 -105 -11 -101 -11 -377 -5 -485 11 -14 2 -50 7 -80 10 -30
4 -64 9 -75 12 -11 2 -45 8 -75 14 -149 29 -411 126 -560 206 -90 49 -214 131
-312 205 -86 65 -297 270 -345 336 -15 20 -35 45 -45 54 -35 36 -188 276 -243
383 -61 118 -138 299 -161 380 -8 28 -18 57 -21 65 -3 8 -7 20 -8 25 -2 6 -10
35 -19 65 -8 30 -17 66 -20 80 -3 14 -12 59 -20 101 -8 41 -18 102 -21 135 -4
32 -10 78 -14 101 -9 44 -6 397 2 448 3 17 9 57 12 90 4 33 8 62 10 65 2 3 6
25 10 48 10 68 71 302 105 403 197 582 556 1111 1020 1504 142 120 346 267
467 337 141 81 254 141 363 192 136 64 140 66 118 66 -8 0 -17 -2 -19 -4z"/>
<path d="M4007 6843 c-2 -1 -28 -5 -58 -9 -223 -23 -460 -110 -629 -229 -242
-171 -405 -446 -435 -734 -7 -63 -7 -193 -1 -231 3 -14 7 -47 11 -75 14 -116
81 -265 158 -358 69 -83 214 -179 293 -193 13 -2 36 -9 50 -14 15 -6 66 -13
113 -15 291 -15 535 157 637 447 47 132 39 361 -17 470 -11 21 -17 38 -14 38
7 0 128 -104 172 -148 104 -106 203 -244 254 -358 l29 -63 44 25 c175 98 529
146 885 121 406 -29 842 -209 1104 -456 20 -19 37 -31 37 -27 0 24 -153 295
-243 431 -63 93 -209 289 -237 315 -8 8 -30 33 -49 55 -53 63 -208 220 -285
288 -38 34 -74 67 -80 72 -54 52 -291 222 -406 292 -251 153 -591 289 -815
327 -16 3 -61 10 -100 17 -62 10 -410 21 -418 12z"/>
<path d="M1406 4388 c-15 -74 -22 -114 -36 -223 -8 -60 -5 -392 3 -430 3 -11
8 -40 12 -65 3 -25 9 -58 11 -75 3 -16 16 -73 29 -125 90 -355 264 -659 525
-920 97 -97 225 -206 289 -245 204 -125 317 -182 466 -233 322 -109 616 -139
965 -97 221 26 516 123 692 226 27 16 51 29 53 29 8 0 169 112 236 166 71 55
210 190 274 264 115 132 259 365 328 533 17 40 16 44 -5 24 -30 -28 -96 -76
-139 -100 -41 -22 -190 -81 -197 -77 -1 1 -27 -4 -57 -10 -113 -23 -299 -14
-426 21 -138 38 -317 136 -387 212 l-24 25 -70 -45 c-173 -112 -437 -207 -634
-228 -18 -2 -54 -7 -80 -10 -49 -6 -259 -7 -324 -1 -279 26 -548 120 -770 269
-385 258 -666 706 -706 1127 -3 30 -7 56 -9 58 -1 2 -10 -30 -19 -70z"/>
</g>
</svg>
