<?xml version="1.0" standalone="no"?>
<!DOCTYPE svg PUBLIC "-//W3C//DTD SVG 20010904//EN"
 "http://www.w3.org/TR/2001/REC-SVG-20010904/DTD/svg10.dtd">
<svg version="1.0" xmlns="http://www.w3.org/2000/svg"
 width="700.000000pt" height="700.000000pt" viewBox="0 0 700.000000 700.000000"
 preserveAspectRatio="xMidYMid meet">
<metadata>
Created by potrace 1.11, written by Peter Selinger 2001-2013
</metadata>
<g transform="translate(0.000000,700.000000) scale(0.100000,-0.100000)"
fill="#000000" stroke="none">
<path d="M3149 6996 c-2 -2 -34 -6 -70 -10 -36 -3 -88 -10 -115 -15 -27 -5
-67 -12 -89 -15 -192 -29 -511 -124 -745 -223 -184 -78 -524 -270 -667 -377
-26 -20 -61 -46 -78 -59 -180 -135 -462 -409 -600 -583 -271 -340 -473 -707
-604 -1099 -34 -102 -82 -274 -95 -341 -31 -156 -48 -248 -52 -289 -3 -27 -7
-61 -9 -75 -20 -114 -26 -513 -12 -697 26 -339 116 -714 250 -1039 88 -214
216 -452 345 -639 70 -101 93 -134 113 -159 207 -260 441 -492 674 -668 234
-176 539 -348 810 -456 255 -101 583 -187 835 -218 25 -3 59 -7 75 -10 59 -8
262 -18 400 -18 723 0 1434 230 2030 658 175 126 462 387 590 536 273 320 471
646 620 1020 45 113 124 353 140 429 3 12 7 31 10 44 2 12 8 36 12 52 4 17 7
32 8 35 1 3 5 25 9 50 5 25 10 54 12 65 6 26 30 203 39 280 18 151 11 616 -10
705 -3 14 -8 40 -11 59 -8 46 -68 217 -105 299 -26 57 -116 215 -141 247 -169
218 -274 320 -453 438 -151 99 -327 175 -510 221 -55 14 -109 23 -235 41 -56
8 -325 9 -377 1 -21 -3 -58 -8 -83 -11 -221 -29 -485 -141 -639 -271 -128
-108 -243 -262 -301 -400 -157 -377 -88 -820 160 -1028 63 -53 122 -85 210
-114 62 -21 97 -26 198 -27 167 -3 270 23 386 100 238 156 340 476 245 766
-18 55 -62 143 -79 159 -22 21 -52 62 -40 55 51 -28 151 -121 214 -198 56 -71
135 -227 150 -299 3 -13 8 -34 12 -48 11 -34 12 -345 2 -398 -4 -24 -10 -64
-13 -90 -10 -78 -53 -238 -94 -346 -223 -587 -710 -1048 -1326 -1254 -94 -32
-249 -72 -300 -79 -16 -2 -37 -5 -45 -8 -8 -2 -37 -7 -65 -11 -27 -3 -61 -8
-75 -11 -52 -8 -458 -11 -525 -3 -142 18 -162 21 -240 36 -194 38 -361 95
-550 188 -552 272 -973 786 -1179 1439 -39 124 -81 314 -91 412 -4 33 -10 79
-14 102 -9 44 -6 397 2 448 3 17 9 57 12 90 4 33 8 62 10 65 2 3 6 24 10 47 3
23 19 95 35 160 176 714 601 1366 1197 1836 77 61 294 211 358 248 151 86 256
142 365 193 136 64 140 66 118 66 -8 0 -17 -2 -19 -4z"/>
<path d="M4007 6844 c-2 -2 -28 -6 -58 -10 -226 -25 -465 -112 -629 -228 -241
-171 -405 -449 -435 -735 -7 -63 -7 -193 -1 -231 3 -14 7 -47 11 -75 3 -27 18
-84 32 -128 91 -275 320 -446 603 -450 126 -3 189 11 291 62 150 75 265 210
325 382 47 133 38 362 -17 471 -11 21 -17 38 -15 38 8 0 118 -94 166 -142 109
-108 206 -243 261 -363 l28 -63 53 28 c57 31 154 66 209 75 19 3 52 10 74 15
143 31 409 42 605 26 145 -12 339 -51 455 -91 133 -46 170 -61 260 -107 114
-57 276 -161 325 -208 87 -83 92 -86 80 -56 -5 15 -32 69 -59 120 -184 347
-451 687 -742 946 -46 41 -86 77 -89 80 -34 38 -316 238 -425 302 -255 150
-572 275 -790 312 -16 3 -61 10 -100 17 -62 10 -410 21 -418 13z"/>
<path d="M1410 4408 c-16 -74 -29 -152 -38 -223 -14 -117 -6 -463 12 -516 3
-8 7 -33 10 -55 8 -67 52 -232 90 -334 204 -563 671 -1022 1231 -1208 116 -39
253 -75 325 -85 49 -8 142 -19 187 -23 56 -4 292 -4 338 1 126 13 159 18 248
36 54 11 116 27 138 34 21 8 40 13 42 12 8 -6 213 78 312 128 314 160 570 390
771 691 59 89 197 354 188 363 -2 2 -13 -5 -24 -17 -78 -84 -259 -162 -433
-187 -133 -19 -351 7 -462 54 -127 55 -223 112 -292 175 l-39 35 -47 -33
c-153 -109 -423 -207 -662 -242 -84 -12 -421 -13 -470 -1 -11 3 -40 8 -65 12
-678 106 -1268 712 -1336 1375 -4 30 -7 56 -9 58 -2 2 -8 -21 -15 -50z"/>
</g>
</svg>
