<svg width="{{ .size }}" height="{{ .size }}" viewBox="0 0 500 500" xmlns="http://www.w3.org/2000/svg"><path d="M 123.99749,375.4995 L -0.5,250.99899 L 124.24899,126.25 L 248.99799,1.501007 L 373.74699,126.25 L 498.49598,250.99899 L 373.99849,375.4995 C 305.52487,443.97477 249.27465,500 248.99799,500 C 248.72133,500 192.47111,443.97477 123.99749,375.4995 z M 359.49856,360.99943 L 469.49572,250.99886 L 359.24685,140.75 L 248.99799,30.501139 L 138.74913,140.75 L 28.50026,250.99886 L 138.49742,360.99943 C 198.99586,421.49974 248.72111,471 248.99799,471 C 249.27487,471 299.00012,421.49974 359.49856,360.99943 z M 192.49799,406 C 192.08971,405.33939 206.74847,404.9853 235.68897,404.9567 L 279.49799,404.9134 L 284.99799,397.5 C 288.02299,393.42263 290.73425,390.06712 291.02302,390.0433 C 292.40688,389.92917 306.16093,404.92734 305.56164,405.89701 C 304.65354,407.36635 193.40507,407.46769 192.49799,406 z M 239.65289,399.54306 C 239.29269,398.60441 238.99799,386.39823 238.99799,372.41821 L 238.99799,347 L 212.05701,347 C 195.17504,347 184.88527,346.62663 184.49799,346 C 184.09168,345.34257 193.32094,345 211.43897,345 L 238.99799,345 L 238.99799,327.01533 L 238.99799,309.03066 L 245.24799,309.65907 C 258.27099,310.96847 260.4645,311.46835 260.79854,313.20285 C 261.0014,314.2562 259.97846,315.47586 258.06018,316.46784 L 254.99799,318.05136 L 254.99799,331.52568 L 254.99799,345 L 271.79837,345 L 288.59876,345 L 294.31084,339.9089 L 300.02293,334.8178 L 307.70986,339.75709 C 311.93767,342.47369 315.56955,345.21469 315.78072,345.84819 C 316.06483,346.70053 308.21309,347 285.58132,347 L 254.99799,347 L 254.99799,372.37756 C 254.99799,393.42735 254.74856,397.96212 253.53535,398.969 C 252.7309,399.63663 249.4256,400.42291 246.19024,400.71628 C 241.25769,401.16355 240.20203,400.9741 239.65289,399.54306 z M 147.49799,327.55939 C 130.9494,324.28432 120.72177,318.9106 109.47493,307.58164 C 96.16605,294.17559 89.46856,278.47649 88.31491,257.98198 C 87.08648,236.1589 93.80485,217.75794 108.84547,201.75081 C 121.55172,188.22806 135.92181,181.21679 155.34864,179.06159 C 170.69847,177.35869 184.45083,179.64657 197.04609,185.99849 C 208.43212,191.74058 218.39027,200.79784 239.37724,224.5 C 244.24719,230 248.52544,234.61544 248.88447,234.75654 C 249.24349,234.89764 254.35965,229.45733 260.2537,222.66696 C 273.37181,207.55399 287.78065,193.49266 295.1904,188.57286 C 313.99567,176.08687 347.57544,175.16174 370.01271,186.5115 C 387.12336,195.16681 401.06445,212.87489 406.61186,233 C 409.09785,242.01877 409.11049,263.90189 406.63496,273 C 400.92545,293.98367 386.52551,311.66104 367.49799,321.04455 C 355.14272,327.13761 348.74817,328.49099 332.49799,328.45215 C 319.81491,328.42183 317.74637,328.1569 310.50759,325.63571 C 294.97655,320.22641 285.90041,312.92875 263.69986,288 C 257.08746,280.575 251.53931,274.32736 251.37066,274.11635 C 251.202,273.90534 243.73666,281.15298 234.781,290.22223 C 211.37867,313.92138 202.64822,320.44934 187.49799,325.57681 C 180.85453,327.82523 177.3784,328.34033 166.99799,328.61454 C 159.05821,328.82427 151.94427,328.43933 147.49799,327.55939 z M 183.61017,301.60416 C 190.77108,298.12148 193.13975,296.09679 209.31302,279.63397 C 219.11129,269.66029 228.46965,259.83391 230.10937,257.79758 L 233.09069,254.09515 L 218.79434,237.81871 C 210.93135,228.86667 201.74108,218.72264 198.37153,215.27641 C 187.81196,204.47656 174.08705,199.92337 158.12518,201.92482 C 143.81107,203.71966 134.00743,208.75486 124.61163,219.13756 C 105.27697,240.50304 106.78589,271.56876 128.15339,292.05572 C 138.26507,301.75071 150.37715,306.10183 166.11017,305.69123 C 174.96224,305.46022 176.3461,305.13702 183.61017,301.60416 z M 346.75826,304.49443 C 374.79522,297.88405 390.88422,270.72253 384.52871,240.73019 C 378.10383,210.4105 341.89374,192.4159 314.50132,205.93009 C 311.19949,207.55907 306.02299,211.10261 302.99799,213.80464 C 297.77538,218.46964 267.87055,252.06493 267.1639,254.06089 C 266.67913,255.43013 284.03125,274.86054 296.13329,286.5 C 306.45909,296.43111 314.6033,301.82747 323.4451,304.59681 C 328.9581,306.32353 339.19099,306.27859 346.75826,304.49443 z M 207.99799,151.12781 C 207.99799,134.00751 207.71344,120 207.36566,120 C 207.01787,120 203.82142,123.0375 200.26242,126.75 C 196.70343,130.4625 193.59324,132.99078 193.35089,132.3684 C 193.10854,131.74602 194.33943,128.82102 196.0862,125.8684 C 202.24217,115.46278 210.11348,92.928731 213.08751,77.196948 C 213.80559,73.398496 214.71993,71.055777 215.38853,71.301292 C 215.99873,71.525362 218.97299,72.507053 221.99799,73.482826 C 225.02299,74.4586 228.25514,75.916425 229.18055,76.722438 C 231.06662,78.365171 230.61215,80.726451 228.32008,81.193078 C 227.21577,81.417899 216.99799,101.79432 216.99799,103.77174 C 216.99799,103.92451 218.12299,104.47723 219.49799,105 C 221.90095,105.9136 223.05835,109 220.99799,109 C 220.35039,109 219.99799,121.32161 219.99799,143.96482 C 219.99799,183.31172 220.64209,180.23374 212.12323,181.59596 L 207.99799,182.25562 L 207.99799,151.12781 z M 222.99799,180.43255 C 222.99799,180.12046 225.06071,177.3329 227.58181,174.23798 C 233.78747,166.61989 237.75231,158.4319 240.49129,147.57796 C 242.99509,137.656 244.99799,121.60454 244.99799,111.46078 L 244.99799,105 L 236.10498,105 C 229.12257,105 227.0883,104.67774 226.63636,103.5 C 226.15004,102.23266 227.50913,102 235.39853,102 L 244.73631,102 L 245.35614,98.250005 C 245.69705,96.187505 245.98093,89.274845 245.98698,82.888538 L 245.99799,71.277071 L 254.24799,72.618545 C 258.78549,73.356356 262.61049,73.969017 262.74799,73.980012 C 263.86856,74.069624 262.60463,78.162983 261.13826,79.193301 C 259.57986,80.288284 259.20138,82.241796 258.80236,91.250005 L 258.32618,102 L 264.54077,102 C 270.50305,102 270.8058,101.87821 271.99799,99.000005 C 272.68144,97.350005 273.52354,96.015609 273.86931,96.034681 C 275.14937,96.105286 287.99799,106.07011 287.99799,106.99227 C 287.99799,107.51827 286.64799,108.64675 284.99799,109.5 L 281.99799,111.05136 L 281.99799,136.09142 C 281.99799,151.43982 282.39865,161.88013 283.03317,163.06574 C 284.36561,165.55542 290.02355,165.66255 292.765,163.25 C 293.85872,162.2875 296.01146,157.7875 297.54887,153.25 C 299.08627,148.7125 300.77868,145 301.30978,145 C 301.89768,145 302.07302,148.54951 301.75802,154.07408 C 301.2873,162.32976 301.42708,163.32185 303.30788,165.07408 C 304.44486,166.13333 305.69212,167 306.07956,167 C 307.16267,167 308.00059,169.82964 307.38925,171.42276 C 307.08897,172.20528 305.1906,173.66 303.17064,174.65547 C 297.78094,177.3116 273.92878,177.35659 271.28457,174.7156 C 269.65169,173.08473 269.47223,170.00906 269.19857,138.9656 L 268.89915,105 L 263.55644,105 L 258.21373,105 L 257.53577,115.25 C 256.6064,129.30114 254.4059,142.83475 252.00896,149.24113 C 247.99256,159.97593 240.62453,169.3111 230.42198,176.59149 C 224.42008,180.87436 222.99799,181.61013 222.99799,180.43255 z" style="fill:#000000" /></svg>
