<?xml version="1.0" encoding="UTF-8"?>
<svg width="360" height="359.82" version="1.1" viewBox="0 0 360.00293 359.82001" xmlns="http://www.w3.org/2000/svg" xmlns:cc="http://creativecommons.org/ns#" xmlns:dc="http://purl.org/dc/elements/1.1/" xmlns:rdf="http://www.w3.org/1999/02/22-rdf-syntax-ns#">
<path d="m164.38 0.01c-92.054 7.9266-164.38 85.717-164.38 179.81 0 99.36 80.64 180 180 180s180-80.64 180-180c0.0394-5.7835-0.32391-11.558-0.84375-17.312-5.278-32.97-35.364-69.688-85.156-69.688-42.028 0-66.5 26.239-66.5 57 0 23.005 13 39 34.5 39 34.507 0 42-40.5 24-57 24.691 16.056 21.5 40.25 21.5 40.25 0 48.013-42.982 102.62-114 102.62-79.513 0-119.5-68.873-119.5-123.38 0-42.34 27.159-116.53 110.38-151.31z" fill="#2a5099"/>
<path d="m215 7.76c-47.529 0-67 30.306-67 56 0 31.309 21.085 40.031 34 40.031 20.522 0 33-17.643 33-33.469 0-10.072-3.0751-15.166-3.8438-16.281 18.625 13.5 23.812 29.812 23.812 29.812s9.0393-8.0312 38.625-8.0312c17.564 0 45.875 4.2188 68.375 25.969-25.695-55-80.252-94.031-126.97-94.031zm-141.5 122s-3.5625 10.311-3.5625 26.062c0 55.284 43.772 103.5 105.06 103.5 44.658 0 80.969-28 95.969-65.5 0.458-1.9628-7.7443 11-29.75 11-22.522 0-34.719-14.031-34.719-14.031s-17.749 14.969-48.5 14.969c-56.612 0-84.5-48.138-84.5-76z" fill="#2c9eda"/>
</svg>